<svg xmlns="http://www.w3.org/2000/svg" xmlns:xlink="http://www.w3.org/1999/xlink" width="20px" height="20px" style="shape-rendering:geometricPrecision; text-rendering:geometricPrecision; image-rendering:optimizeQuality; fill-rule:evenodd; clip-rule:evenodd"><g><path style="opacity:0.573" fill="#fefffe" d="M 13.5,-0.5 C 14.5,-0.5 15.5,-0.5 16.5,-0.5C 15.8671,3.07881 15.8671,7.07881 16.5,11.5C 16.3795,14.4411 15.7128,17.1078 14.5,19.5C 10.8333,19.5 7.16667,19.5 3.5,19.5C 1.46558,15.1236 0.965575,10.4569 2,5.5C 4.02591,3.90264 6.35925,2.90264 9,2.5C 13.4415,4.59284 14.9415,3.59284 13.5,-0.5 Z M 8.5,5.5 C 10.0418,6.30071 11.7085,6.63404 13.5,6.5C 13.5,9.83333 13.5,13.1667 13.5,16.5C 10.5,16.5 7.5,16.5 4.5,16.5C 4.5,13.1667 4.5,9.83333 4.5,6.5C 6.09903,6.76781 7.43236,6.43448 8.5,5.5 Z"></path></g></svg>